<svg xmlns="http://www.w3.org/2000/svg" xmlns:xlink="http://www.w3.org/1999/xlink" width="500" zoomAndPan="magnify" viewBox="0 0 375 374.999991" height="500" preserveAspectRatio="xMidYMid meet" version="1.2"><defs><clipPath id="abdc544565"><path d="M 250.53125 133.367188 L 328.488281 133.367188 L 328.488281 345.75 L 250.53125 345.75 Z M 250.53125 133.367188 "/></clipPath><clipPath id="1a619b961c"><path d="M 40.589844 29 L 248.65625 29 L 248.65625 364.605469 L 40.589844 364.605469 Z M 40.589844 29 "/></clipPath></defs><g id="9feae15d04"><path style=" stroke:none;fill-rule:nonzero;fill:#000000;fill-opacity:1;" d="M 99.808594 243.636719 C 99.808594 243.636719 92.117188 327.46875 129.800781 335.160156 C 167.484375 342.851562 172.097656 320.546875 159.792969 307.472656 C 147.488281 294.398438 158.253906 256.710938 158.253906 256.710938 C 158.253906 256.710938 127.492188 220.566406 99.808594 243.636719 "/><path style=" stroke:none;fill-rule:nonzero;fill:#6c6e70;fill-opacity:1;" d="M 109.035156 244.40625 C 109.035156 244.40625 135.183594 273.632812 170.558594 261.328125 C 205.9375 249.019531 145.179688 207.492188 145.179688 207.492188 C 145.179688 207.492188 75.199219 214.410156 109.035156 244.40625 "/><g clip-rule="nonzero" clip-path="url(#abdc544565)"><path style=" stroke:none;fill-rule:nonzero;fill:#000000;fill-opacity:1;" d="M 250.539062 249.789062 C 250.539062 249.789062 274.378906 280.554688 272.074219 307.472656 C 269.765625 334.390625 255.921875 329.007812 262.84375 338.234375 C 269.765625 347.464844 289.761719 349.003906 310.523438 338.234375 C 331.289062 327.46875 327.445312 312.085938 326.671875 298.242188 C 325.90625 284.398438 337.441406 229.792969 310.523438 186.722656 C 310.523438 186.722656 308.988281 122.121094 282.070312 135.195312 C 255.152344 148.269531 250.539062 249.789062 250.539062 249.789062 "/></g><path style=" stroke:none;fill-rule:nonzero;fill:#cccdce;fill-opacity:1;" d="M 187.480469 34.445312 C 187.480469 34.445312 216.703125 23.679688 248.230469 40.597656 C 279.761719 57.519531 303.601562 95.203125 312.0625 164.421875 C 312.0625 164.421875 313.601562 183.648438 318.984375 203.644531 C 318.984375 203.644531 305.144531 189.03125 298.988281 167.5 C 292.835938 145.964844 289.761719 149.808594 292.066406 172.882812 C 294.375 195.953125 297.449219 216.71875 285.144531 235.179688 C 272.84375 253.636719 245.925781 252.097656 241.3125 249.789062 C 236.695312 247.484375 202.089844 180.570312 202.089844 180.570312 L 187.480469 34.445312 "/><path style=" stroke:none;fill-rule:nonzero;fill:#bcbcbc;fill-opacity:1;" d="M 284.128906 74.972656 C 299.800781 111.070312 291.777344 146.890625 288.992188 134.8125 C 285.53125 119.8125 263.613281 85.203125 275.148438 112.890625 C 286.683594 140.578125 284.378906 183.265625 280.917969 186.726562 C 277.457031 190.183594 272.839844 130.195312 268.226562 130.195312 C 263.613281 130.195312 277.457031 178.648438 268.226562 207.492188 C 259 236.332031 242.847656 213.257812 242.847656 213.257812 L 238.625 246.625 C 239.851562 248.398438 240.78125 249.523438 241.3125 249.789062 C 245.925781 252.097656 272.839844 253.636719 285.144531 235.175781 C 297.453125 216.71875 294.375 195.953125 292.066406 172.882812 C 289.761719 149.808594 292.835938 145.964844 298.992188 167.496094 C 305.140625 189.03125 318.984375 203.644531 318.984375 203.644531 C 313.601562 183.648438 312.0625 164.417969 312.0625 164.417969 C 307.253906 125.070312 297.46875 95.921875 284.128906 74.972656 "/><g clip-rule="nonzero" clip-path="url(#1a619b961c)"><path style=" stroke:none;fill-rule:nonzero;fill:#0b0c0c;fill-opacity:1;" d="M 54.433594 110.585938 C 54.433594 110.585938 40.589844 123.660156 40.589844 169.035156 C 40.589844 214.410156 51.359375 269.019531 55.203125 284.398438 C 59.046875 299.78125 56.742188 332.082031 61.355469 344.386719 C 65.96875 356.695312 119.035156 365.921875 129.03125 355.925781 C 139.027344 345.925781 117.496094 330.542969 112.113281 322.855469 C 106.730469 315.164062 90.578125 243.636719 119.804688 238.253906 C 149.027344 232.871094 165.175781 258.25 165.175781 292.859375 C 165.175781 327.46875 155.179688 336.699219 145.949219 343.621094 C 136.722656 350.542969 146.71875 366.691406 171.328125 364.382812 C 195.9375 362.078125 219.777344 363.617188 228.238281 338.234375 C 236.695312 312.855469 241.3125 260.558594 246.695312 225.179688 C 252.078125 189.800781 251.308594 36.75 172.097656 29.0625 L 54.433594 110.585938 "/></g><path style=" stroke:none;fill-rule:nonzero;fill:#d7dadd;fill-opacity:1;" d="M 55.203125 131.351562 C 55.203125 131.351562 54.433594 62.902344 91.347656 36.753906 C 128.261719 10.601562 128.261719 30.601562 140.566406 26.753906 C 152.871094 22.910156 162.101562 19.0625 172.867188 25.984375 C 183.632812 32.90625 205.933594 52.132812 200.550781 95.972656 C 195.167969 139.808594 197.476562 152.886719 185.171875 149.039062 C 172.867188 145.195312 55.203125 131.351562 55.203125 131.351562 "/><path style=" stroke:none;fill-rule:nonzero;fill:#cccdce;fill-opacity:1;" d="M 62.636719 116.480469 C 62.636719 116.480469 46.230469 131.863281 46.230469 163.652344 C 46.230469 195.441406 53.023438 206.679688 60.203125 216.933594 C 67.378906 227.1875 100.0625 236.972656 122.109375 232.359375 C 122.109375 232.359375 149.796875 236.972656 173.890625 225.691406 C 197.988281 214.410156 201.0625 180.570312 193.375 151.859375 C 185.683594 123.148438 190.296875 110.328125 169.277344 96.484375 C 148.257812 82.640625 87.246094 65.722656 62.636719 116.480469 "/><path style=" stroke:none;fill-rule:nonzero;fill:#d7dadd;fill-opacity:1;" d="M 94.425781 205.953125 C 94.425781 205.953125 92.886719 192.492188 97.5 179.035156 C 102.113281 165.574219 111.34375 159.421875 123.265625 160.574219 C 135.183594 161.730469 143.257812 165.191406 147.871094 184.03125 C 152.488281 202.875 142.875 217.488281 142.875 217.488281 C 142.875 217.488281 100.578125 216.71875 94.425781 205.953125 "/><path style=" stroke:none;fill-rule:nonzero;fill:#000000;fill-opacity:1;" d="M 152.871094 99.046875 C 152.871094 99.046875 148.257812 74.4375 167.484375 69.820312 C 186.710938 65.207031 200.550781 82.128906 200.550781 95.96875 C 200.550781 109.816406 180.558594 115.96875 180.558594 115.96875 C 180.558594 115.96875 162.101562 115.199219 152.871094 99.046875 "/><path style=" stroke:none;fill-rule:nonzero;fill:#000000;fill-opacity:1;" d="M 90.578125 89.820312 C 90.578125 89.820312 88.273438 62.902344 62.894531 66.746094 C 37.515625 70.589844 38.285156 106.738281 50.589844 113.660156 C 62.894531 120.582031 72.890625 112.890625 72.890625 112.890625 C 72.890625 112.890625 89.042969 102.125 90.578125 89.820312 "/><path style=" stroke:none;fill-rule:nonzero;fill:#0b0c0c;fill-opacity:1;" d="M 105.191406 166.730469 C 105.191406 166.730469 110.574219 155.960938 100.578125 152.117188 C 90.578125 148.269531 88.273438 162.882812 81.351562 169.804688 C 74.429688 176.726562 75.199219 184.417969 82.890625 191.339844 C 90.578125 198.261719 96.730469 191.339844 96.730469 187.492188 C 96.730469 183.648438 99.808594 172.882812 105.191406 166.730469 "/><path style=" stroke:none;fill-rule:nonzero;fill:#0b0c0c;fill-opacity:1;" d="M 137.867188 165.660156 C 137.867188 165.660156 132.484375 154.890625 142.480469 151.046875 C 152.480469 147.203125 154.785156 161.816406 161.707031 168.738281 C 168.628906 175.660156 167.859375 183.351562 160.171875 190.269531 C 152.480469 197.195312 146.328125 190.269531 146.328125 186.425781 C 146.328125 182.578125 143.25 171.8125 137.867188 165.660156 "/><path style=" stroke:none;fill-rule:nonzero;fill:#acb3bd;fill-opacity:1;" d="M 122.109375 197.109375 C 122.109375 197.109375 108.652344 196.339844 104.421875 204.03125 C 100.191406 211.71875 94.425781 205.953125 94.425781 205.953125 C 94.425781 205.953125 99.507812 233.640625 123.734375 234.410156 C 147.957031 235.179688 147.871094 204.796875 147.871094 204.796875 C 147.871094 204.796875 143.644531 205.953125 140.183594 201.335938 C 136.722656 196.722656 127.878906 195.953125 122.109375 197.109375 "/><path style=" stroke:none;fill-rule:nonzero;fill:#000000;fill-opacity:1;" d="M 122.878906 216.71875 C 122.878906 216.71875 106.984375 212.105469 105.960938 206.207031 C 104.933594 200.3125 122.621094 201.335938 122.621094 201.335938 C 122.621094 201.335938 141.335938 200.3125 139.285156 205.953125 C 137.234375 211.589844 122.878906 216.71875 122.878906 216.71875 "/><path style=" stroke:none;fill-rule:nonzero;fill:#000000;fill-opacity:1;" d="M 122.878906 216.71875 C 122.878906 216.71875 122.621094 220.820312 117.238281 222.359375 C 111.855469 223.898438 103.910156 221.847656 102.113281 220.050781 C 102.113281 220.050781 114.164062 229.023438 123.136719 221.332031 C 123.136719 221.332031 133.902344 228 140.824219 220.566406 C 140.824219 220.566406 134.414062 225.4375 126.46875 220.820312 C 126.46875 220.820312 123.90625 219.28125 122.878906 216.71875 "/><path style=" stroke:none;fill-rule:nonzero;fill:#000000;fill-opacity:1;" d="M 97.5 174.421875 C 97.5 176.96875 95.777344 179.035156 93.65625 179.035156 C 91.53125 179.035156 89.808594 176.96875 89.808594 174.421875 C 89.808594 171.871094 91.53125 169.804688 93.65625 169.804688 C 95.777344 169.804688 97.5 171.871094 97.5 174.421875 "/><path style=" stroke:none;fill-rule:nonzero;fill:#000000;fill-opacity:1;" d="M 153.042969 174.421875 C 153.042969 176.96875 151.320312 179.035156 149.195312 179.035156 C 147.074219 179.035156 145.351562 176.96875 145.351562 174.421875 C 145.351562 171.871094 147.074219 169.804688 149.195312 169.804688 C 151.320312 169.804688 153.042969 171.871094 153.042969 174.421875 "/><path style=" stroke:none;fill-rule:nonzero;fill:#ffffff;fill-opacity:1;" d="M 151.527344 171.320312 C 151.527344 171.851562 151.09375 172.28125 150.566406 172.28125 C 150.035156 172.28125 149.605469 171.851562 149.605469 171.320312 C 149.605469 170.789062 150.035156 170.359375 150.566406 170.359375 C 151.09375 170.359375 151.527344 170.789062 151.527344 171.320312 "/><path style=" stroke:none;fill-rule:nonzero;fill:#ffffff;fill-opacity:1;" d="M 96.539062 171.535156 C 96.539062 172.066406 96.109375 172.496094 95.578125 172.496094 C 95.046875 172.496094 94.617188 172.066406 94.617188 171.535156 C 94.617188 171.003906 95.046875 170.574219 95.578125 170.574219 C 96.109375 170.574219 96.539062 171.003906 96.539062 171.535156 "/></g></svg>